<?xml version="1.0" encoding="UTF-8"?>
<!DOCTYPE svg PUBLIC "-//W3C//DTD SVG 1.1//EN" "http://www.w3.org/Graphics/SVG/1.1/DTD/svg11.dtd">
<!-- Creator: CorelDRAW X6 -->
<svg xmlns="http://www.w3.org/2000/svg" xml:space="preserve" width="210mm" height="297mm" version="1.1" style="shape-rendering:geometricPrecision; text-rendering:geometricPrecision; image-rendering:optimizeQuality; fill-rule:evenodd; clip-rule:evenodd"
viewBox="0 0 21000 29700"
 xmlns:xlink="http://www.w3.org/1999/xlink">
 <defs>
  <style type="text/css">
   <![CDATA[
    .fil0 {fill:#FEFEFE}
    .fil1 {fill:#2B2A29;fill-rule:nonzero}
    .fil3 {fill:#E31E24;fill-rule:nonzero}
    .fil2 {fill:#FEFEFE;fill-rule:nonzero}
   ]]>
  </style>
 </defs>
 <g id="Warstwa_x0020_1">
  <metadata id="CorelCorpID_0Corel-Layer"/>
  <g id="_868490336">
   <path class="fil0" d="M10631 2671c1804,2125 2577,3387 2759,5857 61,832 -184,2234 -501,3683 -1161,1381 -1901,3479 -1901,5828 0,65 1,130 2,195l0 7c0,968 153,1892 421,2738 243,768 515,1418 824,1952 -280,2154 -447,2908 -1603,4430 -1155,-1522 -1323,-2276 -1603,-4430 309,-533 581,-1183 824,-1952 267,-845 421,-1770 421,-2738l0 -7c1,-65 2,-130 2,-195 0,-2349 -741,-4447 -1901,-5828 -316,-1448 -562,-2851 -501,-3683 182,-2470 955,-3732 2759,-5857z"/>
   <path class="fil1" d="M10752 2573c909,1070 1559,1925 2007,2829 451,909 694,1859 787,3116 31,428 -15,998 -110,1644 -94,640 -235,1356 -394,2083 -7,30 -21,57 -42,77 -574,686 -1044,1555 -1367,2546 -313,961 -489,2036 -489,3172l0 97c0,30 1,62 1,96l0 6 0 4 1 0c0,467 36,924 104,1365 70,459 175,902 309,1326 121,383 248,733 382,1051 134,318 276,608 428,870 19,33 25,70 19,105 -141,1084 -254,1817 -479,2475 -227,665 -564,1246 -1153,2022 -52,68 -149,82 -217,30 -12,-9 -23,-20 -32,-32 -588,-774 -925,-1355 -1151,-2019 -225,-660 -338,-1394 -480,-2482 -5,-35 3,-69 20,-98l0 0c152,-262 294,-552 428,-870 134,-317 260,-667 382,-1051 134,-424 239,-867 309,-1326 68,-442 104,-898 104,-1365l1 0 0 -7 0 -3 0 0c1,-34 1,-66 1,-96l0 -97c0,-1136 -175,-2212 -489,-3172 -325,-996 -797,-1868 -1376,-2556 -17,-20 -28,-43 -33,-67l-1 0c-159,-727 -300,-1443 -394,-2083 -95,-646 -141,-1216 -110,-1644 92,-1256 336,-2207 787,-3116 448,-904 1099,-1759 2009,-2831 55,-65 153,-74 219,-18 7,6 14,13 20,20zm1728 2966c-415,-837 -1016,-1639 -1849,-2627 -833,988 -1434,1791 -1849,2627 -432,871 -666,1786 -755,3000 -30,404 16,952 108,1577 91,620 228,1317 382,2026 593,714 1076,1611 1408,2629 324,992 505,2100 505,3268l-1 99c0,35 -1,68 -1,99l0 5 1 0c0,482 -37,954 -108,1411 -73,476 -182,935 -320,1373 -122,385 -252,744 -393,1077 -132,314 -271,600 -419,860 135,1038 246,1744 460,2370 199,584 491,1104 982,1769 491,-665 783,-1185 982,-1769 214,-626 324,-1332 460,-2370 -147,-259 -287,-546 -419,-860 -140,-333 -271,-692 -393,-1077 -139,-438 -247,-898 -320,-1373 -70,-457 -108,-929 -108,-1411l1 0 0 -1 0 -5c-1,-31 -1,-64 -1,-98l-1 -99c0,-1168 181,-2277 505,-3268 332,-1018 816,-1914 1408,-2629 154,-709 291,-1405 382,-2026 92,-625 137,-1173 108,-1577 -89,-1214 -323,-2129 -755,-3000zm-1335 12696l0 3"/>
   <path class="fil1" d="M10631 25610l-4 0c-69,-943 -110,-2045 -108,-3381l0 -13485c-2,-2677 97,-4066 106,-4295l6 0 6 0c9,229 108,1618 106,4295l0 13485c2,1336 -39,2438 -108,3381l-4 0z"/>
   <path class="fil0" d="M16184 10521c5908,0 4873,6971 287,6283 1026,-1323 -174,-2765 -2023,-2216 -1452,431 -2145,2361 -2145,3893 0,949 212,1821 565,2505 922,1735 3034,1320 3139,290 711,76 1018,822 897,1571 -333,2061 -3028,2010 -4186,707 -509,-573 -920,-1444 -1299,-2679 -267,-872 -421,-1825 -421,-2823 0,-4159 2321,-7531 5185,-7531z"/>
   <path class="fil1" d="M16184 10360c2120,0 3380,880 3924,1998 248,510 346,1068 308,1615 -38,547 -212,1083 -507,1549 -637,1004 -1837,1684 -3459,1440 -85,-12 -144,-94 -132,-181 5,-34 19,-64 40,-87 230,-300 335,-604 335,-881 1,-237 -75,-457 -212,-641 -140,-188 -345,-339 -600,-434 -372,-139 -849,-157 -1389,3 -619,184 -1093,664 -1427,1270 -407,738 -605,1660 -605,2469 0,454 50,889 141,1292l1 6c94,415 232,796 404,1130l0 0c273,514 656,824 1054,979 294,114 597,143 870,105 267,-37 504,-137 673,-283 141,-122 233,-276 251,-450 9,-88 85,-152 170,-143 19,2 41,5 64,9 371,60 641,281 806,587 159,294 220,666 179,1044l-1 5c-4,37 -9,75 -15,112 -86,532 -319,935 -642,1222 -268,238 -597,394 -951,474 -348,79 -724,84 -1095,25 -669,-108 -1323,-433 -1766,-932 -265,-299 -503,-672 -723,-1129 -218,-452 -418,-986 -609,-1610 -139,-452 -247,-925 -320,-1416 -70,-471 -108,-958 -108,-1455 0,-2113 592,-4029 1548,-5418 967,-1405 2308,-2273 3793,-2273zm3646 2141c-495,-1019 -1663,-1820 -3646,-1820 -1379,0 -2630,817 -3540,2138 -920,1337 -1490,3186 -1490,5232 0,482 36,952 104,1408 70,473 175,930 309,1367 187,611 382,1130 591,1565 207,431 429,780 673,1055 394,444 981,734 1584,832 332,54 669,49 982,-22 306,-69 587,-201 814,-403 270,-240 465,-580 538,-1032 5,-32 9,-63 13,-94l0 -5c34,-314 -14,-618 -142,-853 -107,-197 -272,-346 -493,-407 -56,191 -171,359 -328,494 -213,184 -506,310 -832,355 -321,44 -676,10 -1020,-123 -462,-179 -905,-536 -1217,-1124l0 0 -1 -2c-186,-359 -333,-767 -433,-1209l-2 -7c-97,-428 -149,-887 -149,-1365 0,-858 212,-1838 646,-2627 372,-674 906,-1211 1612,-1420 606,-180 1150,-156 1580,4 312,116 565,304 740,540 179,240 277,527 276,836 -1,277 -81,571 -255,862 1356,120 2357,-473 2900,-1329 266,-420 423,-903 458,-1396 34,-492 -53,-993 -275,-1449z"/>
   <path class="fil1" d="M11366 16512c-318,1128 -277,2355 4,3465 1292,5103 5517,4100 4764,1415 492,2540 -3313,3298 -4519,-1467 -273,-1077 -313,-2265 -6,-3354 389,-1799 2193,-4303 4415,-4074 2262,265 2694,2609 1282,3948 1786,-1221 1131,-4321 -1700,-4204 -1969,82 -3749,2119 -4240,4272z"/>
   <path class="fil0" d="M5076 10521c-5908,0 -4873,6971 -287,6283 -1026,-1323 174,-2765 2023,-2216 1452,431 2145,2361 2145,3893 0,949 -212,1821 -565,2505 -922,1735 -3034,1320 -3139,290 -711,76 -1018,822 -897,1571 333,2061 3028,2010 4186,707 509,-573 920,-1444 1299,-2679 267,-872 421,-1825 421,-2823 0,-4159 -2321,-7531 -5185,-7531z"/>
   <path class="fil1" d="M5076 10681c-1983,0 -3152,801 -3646,1820 -222,456 -309,957 -275,1449 34,492 191,976 458,1396 543,855 1544,1449 2900,1329 -174,-291 -254,-585 -255,-862 -1,-310 98,-597 276,-836 176,-235 429,-423 740,-540 431,-160 974,-184 1580,-4 706,209 1240,746 1612,1420 435,789 646,1769 646,2627 0,478 -53,937 -149,1365l-2 7c-100,442 -248,850 -433,1209l-1 2 0 0c-312,588 -755,945 -1217,1124 -344,133 -699,167 -1020,123 -326,-45 -619,-170 -832,-355 -157,-136 -272,-303 -328,-494 -221,62 -386,210 -493,407 -127,235 -175,539 -142,853l0 5c3,31 8,62 13,94 73,452 269,793 538,1032 226,201 507,333 814,403 313,71 650,76 982,22 604,-98 1190,-388 1584,-832 244,-275 466,-624 673,-1055 209,-435 404,-954 591,-1565 134,-437 239,-894 309,-1367 68,-455 104,-926 104,-1408 0,-2046 -569,-3896 -1490,-5232 -909,-1321 -2161,-2138 -3540,-2138zm-3924 1677c543,-1118 1804,-1998 3924,-1998 1485,0 2826,869 3793,2273 956,1389 1548,3305 1548,5418 0,497 -37,984 -108,1455 -73,490 -182,964 -320,1416 -191,624 -392,1158 -609,1610 -220,457 -458,830 -723,1129 -443,499 -1096,824 -1766,932 -371,60 -746,54 -1095,-25 -355,-80 -683,-236 -951,-474 -322,-286 -556,-690 -642,-1222 -6,-37 -11,-74 -15,-112l-1 -5c-41,-378 20,-750 179,-1044 166,-306 436,-527 806,-587 23,-4 45,-7 64,-9 85,-9 162,55 170,143 18,174 110,328 251,450 169,146 406,246 673,283 273,37 576,8 870,-105 398,-154 781,-465 1054,-979l0 0c172,-334 310,-715 404,-1130l1 -6c91,-403 141,-838 141,-1292 0,-809 -198,-1731 -605,-2469 -334,-606 -808,-1086 -1427,-1270 -540,-160 -1017,-142 -1389,-3 -255,95 -460,246 -600,434 -137,184 -212,404 -212,641 1,277 105,580 335,881 21,23 36,53 40,87 12,88 -47,169 -132,181 -1622,244 -2822,-436 -3459,-1440 -295,-466 -469,-1002 -507,-1549 -38,-547 60,-1105 308,-1615z"/>
   <path class="fil1" d="M9894 16512c318,1128 277,2355 -4,3465 -1292,5103 -5517,4100 -4764,1415 -492,2540 3313,3298 4519,-1467 273,-1077 313,-2265 6,-3354 -389,-1799 -2193,-4303 -4415,-4074 -2262,265 -2694,2609 -1282,3948 -1786,-1221 -1131,-4321 1700,-4204 1969,82 3749,2119 4240,4272z"/>
   <path class="fil1" d="M7013 21136c415,-464 682,-643 1305,-728 711,-77 1426,18 2133,86 1065,97 1861,139 2923,-94 618,-157 1065,-350 1599,-697 590,-406 976,-907 1402,-1476 -738,-519 -1477,-1038 -2215,-1557 -219,292 -416,507 -719,715 -241,156 -436,239 -715,309 -678,149 -1324,90 -2009,27 -975,-93 -1753,-75 -2743,32 -588,81 -1028,203 -1564,460 -596,307 -991,625 -1434,1121l2038 1801z"/>
   <path class="fil2" d="M6052 20046c297,-308 554,-508 937,-704 394,-188 715,-275 1147,-334 859,-93 1605,-1 2455,80 870,79 1576,24 2441,-166 439,-112 753,-246 1133,-492 395,-271 659,-535 955,-909l-918 -660c-213,269 -392,450 -676,645 -257,167 -466,255 -764,331 -701,154 -1352,96 -2059,31 -960,-92 -1735,-74 -2710,31 -571,78 -996,196 -1515,445 -514,263 -863,532 -1261,945 279,252 558,504 837,756z"/>
   <path class="fil3" d="M7000 20902c181,-188 336,-312 570,-432 249,-119 456,-170 729,-208 722,-78 1448,17 2167,85 1046,95 1830,139 2873,-90 600,-153 1032,-339 1550,-675 519,-356 902,-822 1290,-1312l-940 -659c-306,387 -580,660 -990,941 -396,257 -723,397 -1181,514 -886,194 -1600,251 -2491,170 -835,-80 -1578,-172 -2421,-81 -414,57 -721,139 -1098,319 -366,188 -611,378 -894,673 279,252 558,504 837,756z"/>
  </g>
 </g>
</svg>
