<?xml version="1.0" encoding="UTF-8"?>
<!DOCTYPE svg PUBLIC "-//W3C//DTD SVG 1.1//EN" "http://www.w3.org/Graphics/SVG/1.1/DTD/svg11.dtd">
<!-- Creator: CorelDRAW X6 -->
<svg xmlns="http://www.w3.org/2000/svg" xml:space="preserve" width="210mm" height="297mm" version="1.1" style="shape-rendering:geometricPrecision; text-rendering:geometricPrecision; image-rendering:optimizeQuality; fill-rule:evenodd; clip-rule:evenodd"
viewBox="0 0 21000 29700"
 xmlns:xlink="http://www.w3.org/1999/xlink">
 <defs>
  <style type="text/css">
   <![CDATA[
    .fil2 {fill:#FEFEFE}
    .fil3 {fill:#2B2A29;fill-rule:nonzero}
    .fil5 {fill:#E31E24;fill-rule:nonzero}
    .fil4 {fill:#FEFEFE;fill-rule:nonzero}
    .fil0 {fill:#2B2A29;fill-rule:nonzero}
    .fil1 {fill:#C5C6C6;fill-rule:nonzero}
   ]]>
  </style>
 </defs>
 <g id="Warstwa_x0020_1">
  <metadata id="CorelCorpID_0Corel-Layer"/>
  <g id="_755685120">
   <g>
    <path class="fil0" d="M6734 19266l-167 269 -157 31c3,-33 5,-65 5,-95 0,-11 -1,-29 -2,-53l-3 -53c-1,-23 -5,-74 -7,-156l-160 324 -168 33c12,-91 17,-184 17,-278 0,-102 -3,-144 -36,-144 -12,0 -35,13 -68,36l-16 -54c89,-67 151,-113 195,-113 67,0 90,64 90,185 0,54 -5,115 -12,181 73,-149 131,-253 143,-330l176 -26c-1,20 -2,43 -2,70 0,21 3,63 6,128l1 24c2,37 6,88 8,152 69,-122 111,-195 111,-233 0,-26 -11,-43 -35,-57l37 -47c24,-31 45,-48 74,-48 33,0 55,24 55,63 0,50 -35,107 -86,190z"/>
    <path class="fil0" d="M6984 19567c-52,0 -88,-42 -88,-113 0,-102 61,-214 61,-280 0,-21 -12,-32 -29,-32 -11,0 -31,9 -61,21l-19 -53 77 -41c62,-33 108,-57 150,-57 45,0 77,34 77,92 0,41 -21,102 -45,191 -14,53 -22,86 -22,101 0,21 12,33 26,33 14,0 34,-14 63,-40l20 58c-98,76 -165,119 -211,119zm168 -689l-68 33 -40 -38c-26,-24 -45,-43 -45,-70 0,-32 22,-55 66,-78l69 -36 51 49c22,20 33,36 33,64 0,29 -22,53 -65,74z"/>
    <path class="fil0" d="M7584 19104c-74,0 -152,128 -152,268 0,43 14,65 41,65 18,0 60,-28 123,-84 16,-83 31,-159 42,-228 -20,-13 -37,-21 -56,-21zm249 377c-41,35 -78,60 -108,73 -27,12 -54,41 -57,80 -3,38 15,62 46,62 24,0 44,-13 69,-39l40 41c-55,66 -107,100 -159,100 -82,0 -130,-55 -123,-126 4,-48 24,-90 69,-133 -14,-17 -22,-41 -22,-72 0,-8 1,-20 2,-34 -87,85 -153,133 -213,133 -76,0 -130,-60 -130,-162 0,-92 36,-184 101,-258 76,-85 179,-134 265,-134 38,0 70,10 102,31l119 -30c-42,222 -65,349 -65,380 0,23 9,35 23,35 15,0 34,-17 64,-40l18 59 -40 34z"/>
    <path class="fil0" d="M8113 19380c81,12 136,20 167,20 63,0 84,-18 90,-85l56 9c-20,169 -53,243 -164,243 -81,0 -171,-37 -254,-37 -45,0 -80,13 -111,46l-42 -44c92,-83 200,-200 337,-340 -70,-10 -119,-17 -145,-17 -50,0 -70,18 -80,73l-59 -10 8 -44c23,-132 66,-184 150,-184 88,0 176,42 234,42 36,0 68,-18 98,-53l45 45c-107,110 -221,217 -330,335z"/>
    <path class="fil0" d="M8758 19099c-48,0 -82,62 -93,183 96,-49 146,-71 146,-123 0,-33 -23,-60 -53,-60zm57 180l-153 67 0 10c0,63 21,92 68,92 36,0 91,-34 171,-95l22 63c-106,100 -193,151 -282,151 -104,0 -170,-75 -170,-195 0,-84 35,-177 95,-247 64,-74 146,-114 230,-114 102,0 168,64 168,135 0,68 -50,90 -149,133z"/>
    <path class="fil0" d="M9395 19138c-31,0 -69,32 -133,77l-16 97c121,-2 193,-60 193,-126 0,-30 -18,-49 -44,-49zm85 430c-70,0 -126,-66 -187,-199 -19,4 -38,7 -60,8l-6 38c-3,19 -10,57 -16,113l-194 33c27,-130 53,-260 75,-392l16 -93c23,-132 38,-210 38,-237 0,-34 -11,-45 -46,-45 -6,0 -16,0 -33,2l-3 -59c96,-5 192,-16 290,-34 -24,138 -45,231 -54,280l-28 157c94,-78 148,-129 209,-129 63,0 123,57 123,134 0,79 -54,139 -156,167 61,88 94,133 127,133 14,0 35,-13 66,-37l20 51c-75,72 -134,108 -182,108z"/>
    <path class="fil0" d="M11271 19104c-74,0 -151,128 -151,268 0,43 14,65 41,65 19,0 60,-28 123,-84 16,-83 31,-159 42,-228 -20,-13 -37,-21 -56,-21zm249 377c-69,58 -124,86 -157,86 -56,0 -89,-35 -89,-101 0,-8 1,-20 2,-34 -87,85 -153,133 -213,133 -76,0 -130,-60 -130,-162 0,-92 36,-184 101,-258 76,-85 179,-134 265,-134 38,0 70,10 101,31l119 -30c-42,222 -65,349 -65,380 0,23 9,35 23,35 15,0 34,-17 64,-40l17 59 -40 34z"/>
    <path class="fil0" d="M12020 19207c-25,-23 -46,-34 -60,-34 -40,0 -73,41 -122,120 -22,78 -36,157 -46,237l-196 31c56,-225 78,-351 78,-377 0,-21 -7,-31 -23,-31 -13,0 -35,14 -69,35l-16 -56c101,-72 161,-116 203,-116 45,0 70,31 70,88 0,27 -7,67 -16,122 84,-136 135,-210 190,-210 40,0 67,25 67,65 0,37 -22,75 -59,127z"/>
    <path class="fil0" d="M12543 19165l-43 32c-31,-50 -60,-75 -96,-75 -54,0 -95,82 -95,220 0,65 21,99 62,99 36,0 79,-34 146,-92l28 66c-98,99 -176,153 -260,153 -103,0 -177,-79 -177,-203 0,-93 38,-180 110,-251 68,-67 151,-102 240,-102 83,0 131,35 131,82 0,26 -17,48 -48,71z"/>
    <path class="fil0" d="M12914 19099c-48,0 -82,62 -93,183 96,-49 146,-71 146,-123 0,-33 -23,-60 -53,-60zm57 180l-153 67 0 10c0,63 21,92 68,92 36,0 91,-34 171,-95l22 63c-106,100 -193,151 -281,151 -104,0 -170,-75 -170,-195 0,-84 35,-177 95,-247 65,-74 146,-114 230,-114 101,0 168,64 168,135 0,68 -50,90 -150,133z"/>
    <path class="fil0" d="M13601 19207c-25,-23 -46,-34 -60,-34 -40,0 -73,41 -122,120 -22,78 -36,157 -46,237l-196 31c56,-225 78,-351 78,-377 0,-21 -8,-31 -23,-31 -13,0 -35,14 -69,35l-16 -56c101,-72 162,-116 203,-116 45,0 70,31 70,88 0,27 -7,67 -16,122 84,-136 135,-210 190,-210 40,0 67,25 67,65 0,37 -22,75 -59,127z"/>
    <path class="fil0" d="M14130 19170l-39 28c-46,-69 -77,-105 -127,-105 -33,0 -57,23 -57,52 0,33 29,49 87,68 107,34 167,60 167,149 0,111 -108,207 -273,207 -120,0 -191,-49 -191,-109 0,-29 13,-47 40,-65l46 -32c49,82 96,123 153,123 35,0 61,-24 61,-53 0,-44 -47,-52 -118,-79 -95,-35 -140,-78 -140,-150 0,-105 101,-194 259,-194 109,0 174,45 174,98 0,24 -14,43 -42,62z"/>
    <path class="fil0" d="M14645 19114c-32,0 -55,-1 -69,-1l-61 0c-27,134 -45,225 -45,276 0,34 12,52 32,52 16,0 45,-23 93,-62l21 61c-98,82 -159,133 -216,133 -69,0 -117,-56 -117,-158 0,-70 21,-168 55,-301l-83 0 13 -61c36,-3 64,-16 94,-38 10,-31 19,-62 31,-92l173 -53c-14,61 -26,116 -35,166 35,0 79,-1 131,-3l-16 82z"/>
    <path class="fil0" d="M15422 19266l-167 269 -157 31c3,-33 5,-65 5,-95 0,-11 -1,-29 -2,-53l-3 -53c-1,-23 -5,-74 -7,-156l-160 324 -168 33c12,-91 17,-184 17,-278 0,-102 -3,-144 -36,-144 -12,0 -35,13 -68,36l-16 -54c90,-67 151,-113 195,-113 68,0 91,64 91,185 0,54 -5,115 -12,181 73,-149 131,-253 143,-330l176 -26c-1,20 -2,43 -2,70 0,21 3,63 7,128l1 24c2,37 6,88 8,152 69,-122 111,-195 111,-233 0,-26 -11,-43 -35,-57l37 -47c24,-31 45,-48 74,-48 33,0 55,24 55,63 0,50 -35,107 -86,190z"/>
    <path class="fil0" d="M15884 19104c-74,0 -152,128 -152,268 0,43 14,65 41,65 19,0 60,-28 123,-84 17,-83 31,-159 43,-228 -20,-13 -37,-21 -56,-21zm249 377c-69,58 -124,86 -157,86 -56,0 -88,-35 -88,-101 0,-8 1,-20 2,-34 -87,85 -153,133 -213,133 -77,0 -130,-60 -130,-162 0,-92 36,-184 101,-258 77,-85 179,-134 265,-134 38,0 70,10 102,31l119 -30c-43,222 -65,349 -65,380 0,23 9,35 23,35 15,0 34,-17 64,-40l17 59 -40 34z"/>
    <path class="fil0" d="M10252 18700l119 17 -63 314c93,59 205,44 335,20l95 -298c57,-31 92,-36 164,-19 26,163 -3,299 -33,488 -26,156 -52,282 -62,445l-17 47 -49 41c-44,-11 -76,10 -112,-17 -62,-79 -37,-158 -14,-267l31 -189 -17 -73 -336 18 -65 219c-30,5 -41,-13 -61,-11 -40,0 -56,-5 -87,-27 -36,-137 6,-246 31,-403 11,-105 45,-168 64,-283 28,-10 46,-14 77,-20z"/>
    <path class="fil0" d="M7173 20904c81,12 136,20 167,20 64,0 84,-18 91,-85l56 9c-20,169 -52,243 -164,243 -81,0 -171,-37 -254,-37 -45,0 -80,13 -111,46l-43 -44c92,-83 200,-200 337,-340 -70,-10 -119,-17 -145,-17 -50,0 -70,18 -80,73l-59 -10 8 -44c23,-132 65,-184 149,-184 88,0 176,42 235,42 36,0 68,-18 98,-53l45 45c-107,109 -220,217 -329,335z"/>
    <path class="fil0" d="M7818 20623c-48,0 -82,62 -93,183 96,-49 146,-71 146,-123 0,-33 -23,-60 -54,-60zm57 180l-153 67 0 10c0,63 21,92 68,92 36,0 91,-34 171,-95l22 63c-106,100 -193,151 -282,151 -104,0 -170,-75 -170,-195 0,-84 35,-177 95,-247 65,-74 146,-114 230,-114 101,0 168,64 168,135 0,67 -50,90 -150,133z"/>
    <path class="fil0" d="M8503 20688l-42 32c-31,-50 -60,-75 -96,-75 -55,0 -95,82 -95,220 0,65 21,98 62,98 36,0 79,-34 146,-92l28 67c-98,98 -176,153 -260,153 -103,0 -177,-78 -177,-202 0,-93 38,-180 110,-251 68,-68 151,-102 240,-102 83,0 131,35 131,82 0,26 -18,48 -48,71z"/>
    <path class="fil0" d="M8805 20904c81,12 136,20 167,20 63,0 84,-18 91,-85l56 9c-20,169 -53,243 -164,243 -81,0 -171,-37 -254,-37 -45,0 -79,13 -111,46l-43 -44c92,-83 200,-200 337,-340 -70,-10 -119,-17 -145,-17 -50,0 -70,18 -80,73l-59 -10 8 -44c23,-132 65,-184 149,-184 88,0 176,42 235,42 36,0 68,-18 98,-53l45 45c-107,109 -221,217 -330,335z"/>
    <path class="fil0" d="M9485 21049c-146,206 -258,312 -358,312 -64,0 -102,-33 -102,-75 0,-28 15,-41 36,-59l37 -32c28,38 51,56 83,56 75,0 122,-85 122,-256 0,-206 -24,-315 -63,-315 -17,0 -38,19 -68,56l-30 -49c80,-94 130,-150 196,-150 88,0 112,105 112,326 0,19 -1,63 -4,134 84,-152 137,-248 137,-307 0,-23 -13,-40 -38,-53l29 -40c28,-39 50,-62 84,-62 34,0 57,25 57,69 0,60 -72,221 -230,445z"/>
    <path class="fil0" d="M10130 20667c-23,0 -58,33 -117,87l-34 192c34,36 65,52 88,52 58,0 110,-115 110,-245 0,-59 -12,-86 -48,-86zm148 307c-58,72 -133,111 -205,111 -38,0 -72,-11 -108,-34l-23 149c-3,20 -4,34 -4,41 0,39 18,49 66,49 9,0 18,-1 28,-1l-11 61c-76,-5 -136,-9 -178,-9 -50,0 -111,3 -182,8l10 -60c9,1 16,1 24,1 56,0 65,-28 77,-105l50 -337c9,-55 22,-112 39,-167l-110 63 -12 -54c87,-52 169,-116 248,-196l66 23c-16,57 -26,103 -33,136l-7 31c85,-87 135,-145 214,-145 79,0 141,73 141,187 0,82 -33,177 -91,249z"/>
    <path class="fil0" d="M10746 20625c-75,0 -131,111 -131,262 0,77 23,115 75,115 72,0 127,-108 127,-278 0,-64 -26,-100 -71,-100zm-92 467c-152,0 -241,-83 -241,-222 0,-178 162,-333 363,-333 148,0 240,88 240,224 0,175 -148,332 -362,332z"/>
    <path class="fil0" d="M11505 20693l-39 28c-46,-69 -77,-105 -128,-105 -33,0 -57,23 -57,52 0,33 29,49 87,68 107,34 167,60 167,149 0,111 -108,207 -273,207 -120,0 -191,-49 -191,-108 0,-29 13,-47 41,-65l46 -32c49,82 96,123 153,123 35,0 61,-24 61,-53 0,-44 -47,-52 -118,-79 -95,-35 -140,-78 -140,-150 0,-105 102,-194 259,-194 109,0 174,45 174,97 0,24 -14,43 -42,62z"/>
    <path class="fil0" d="M11993 20667c-23,0 -58,33 -117,87l-34 192c34,36 66,52 88,52 58,0 110,-115 110,-245 0,-59 -12,-86 -48,-86zm148 307c-58,72 -133,111 -205,111 -38,0 -72,-11 -108,-34l-23 149c-4,20 -5,34 -5,41 0,39 18,49 65,49 9,0 18,-1 28,-1l-11 61c-77,-5 -136,-9 -178,-9 -50,0 -111,3 -182,8l10 -60c9,1 17,1 24,1 56,0 65,-28 77,-105l50 -337c9,-55 22,-112 39,-167l-110 63 -12 -54c87,-52 169,-116 248,-196l67 23c-16,57 -26,103 -33,136l-7 31c85,-87 135,-145 214,-145 78,0 141,73 141,187 0,82 -33,177 -91,249z"/>
    <path class="fil0" d="M12608 20625c-76,0 -131,111 -131,262 0,77 23,115 75,115 72,0 127,-108 127,-278 0,-64 -26,-100 -71,-100zm-92 467c-152,0 -241,-83 -241,-222 0,-178 162,-333 363,-333 148,0 240,88 240,224 0,175 -148,332 -362,332z"/>
    <path class="fil0" d="M13148 20920c0,17 12,31 25,31 8,0 28,-8 43,-21l19 -17 16 55 -35 29c-75,62 -133,93 -168,93 -52,0 -93,-44 -93,-116 0,-53 26,-142 49,-269l15 -83c26,-144 46,-230 46,-262 0,-31 -12,-42 -46,-42 -9,0 -19,1 -31,2l-4 -60c100,-6 197,-17 290,-33 -81,419 -128,650 -128,693z"/>
    <path class="fil0" d="M13429 21091c-52,0 -88,-42 -88,-113 0,-102 61,-214 61,-280 0,-21 -12,-32 -29,-32 -11,0 -31,9 -61,21l-19 -53 77 -41c62,-33 108,-57 150,-57 45,0 77,34 77,92 0,41 -21,102 -45,191 -14,53 -22,86 -22,101 0,21 12,33 26,33 14,0 34,-14 63,-40l20 58c-98,77 -165,119 -211,119zm168 -688l-68 33 -40 -38c-26,-24 -45,-43 -45,-70 0,-32 22,-55 65,-78l69 -35 51 49c22,20 33,37 33,64 0,29 -22,53 -66,74z"/>
    <path class="fil0" d="M14089 20637c-32,0 -55,-1 -69,-1l-61 0c-27,134 -45,225 -45,275 0,34 12,52 32,52 16,0 45,-23 93,-62l21 61c-98,82 -159,133 -216,133 -69,0 -117,-56 -117,-158 0,-70 21,-168 55,-301l-83 0 13 -61c36,-4 64,-16 94,-38 10,-31 20,-62 32,-92l172 -53c-14,61 -26,116 -35,166 35,0 78,-1 131,-3l-16 82z"/>
    <path class="fil0" d="M14415 20623c-48,0 -82,62 -93,183 96,-49 146,-71 146,-123 0,-33 -23,-60 -53,-60zm57 180l-153 67 0 10c0,63 20,92 68,92 36,0 91,-34 171,-95l22 63c-106,100 -193,151 -282,151 -104,0 -170,-75 -170,-195 0,-84 35,-177 95,-247 65,-74 146,-114 230,-114 101,0 168,64 168,135 0,67 -50,90 -150,133z"/>
    <path class="fil0" d="M14963 20701l-40 209c-23,117 -39,217 -99,300 -68,94 -173,149 -259,149 -76,0 -123,-38 -123,-79 0,-28 11,-41 33,-59l39 -32c35,47 65,71 95,71 59,0 77,-75 107,-226l19 -95c25,-129 38,-206 38,-231 0,-26 -11,-40 -24,-40 -10,0 -28,8 -57,20l-17 -53 68 -35c72,-38 120,-64 156,-64 45,0 74,31 74,84 0,20 -3,47 -10,81zm7 -299l-68 33 -40 -38c-26,-24 -45,-43 -45,-70 0,-32 22,-55 66,-78l69 -35 51 49c22,20 33,37 33,64 0,29 -22,53 -65,74z"/>
    <path class="fil0" d="M6445 20366c-33,89 -44,149 -57,241 105,28 236,34 318,-80 13,-46 4,-81 -20,-121l-241 -39zm-134 -164c113,48 227,18 364,25 103,1 198,18 245,118 17,42 20,71 11,105 -1,40 -17,96 -38,127 -62,66 -155,107 -271,148 -25,15 -38,25 -38,56 41,32 64,64 98,107l78 85c16,21 24,26 56,47l83 59c92,69 223,108 364,120l-15 27c-167,35 -324,49 -468,-16 -176,-86 -274,-219 -392,-346l-30 16 -96 267c-44,9 -78,7 -131,8 -17,1 -30,-2 -46,-15 23,-314 107,-580 160,-905l69 -31z"/>
    <path class="fil0" d="M5673 18788l293 -2c51,37 61,79 15,152 -45,63 -99,114 -166,166l-131 98c-90,62 -187,87 -250,191 267,56 544,48 774,187 37,26 51,53 61,85 -12,22 -81,25 -142,20l-233 -13c-186,-23 -330,-150 -508,-84 -87,32 -264,65 -391,63 -55,-3 -135,20 -160,-39 -6,-12 -11,-20 -8,-33 -1,-11 4,-19 12,-31 79,-56 143,-128 256,-190 25,-24 57,-31 98,-72 138,-103 247,-170 407,-268l2 -11c-10,-4 -17,-7 -27,-11 -170,1 -392,-22 -455,-42 -45,-58 -81,-127 25,-173l528 6z"/>
   </g>
   <g>
    <path class="fil1" d="M10117 8360c38,44 74,88 109,130 -305,364 -527,662 -683,976 -167,336 -257,688 -291,1153 -12,158 6,369 41,608 35,237 87,502 146,771l0 0c2,9 6,17 12,25 214,255 389,578 509,946 116,356 181,754 181,1174l0 36c0,11 0,23 -1,35l0 0 0 1 0 3 0 0c0,173 -13,342 -38,505 -26,170 -65,334 -114,491 -45,142 -92,271 -141,389 -50,118 -102,225 -158,322l0 0c-6,11 -9,23 -7,36 52,402 94,674 178,919 70,204 167,386 322,606 -20,27 -40,55 -62,83 -19,25 -55,30 -80,11 -5,-4 -9,-8 -12,-12 -218,-287 -342,-502 -426,-747 -83,-244 -125,-516 -178,-919 -2,-13 1,-26 7,-36l0 0c56,-97 109,-204 158,-322 49,-117 96,-247 141,-389 50,-157 88,-321 114,-491 25,-163 38,-332 38,-505l0 0 0 -3 0 -1 0 0c0,-12 0,-24 1,-35l0 -36c0,-421 -65,-819 -181,-1174 -120,-369 -295,-691 -509,-946 -6,-7 -10,-16 -12,-25l0 0c-59,-269 -111,-534 -146,-771 -35,-239 -52,-450 -41,-608 34,-465 124,-817 291,-1153 166,-335 407,-651 743,-1048 21,-24 57,-27 81,-7 3,2 5,5 7,7z"/>
    <path class="fil1" d="M12127 11243c250,0 468,33 656,92 -122,-21 -254,-32 -398,-32 -550,0 -1046,322 -1404,841 -354,514 -573,1223 -573,2005 0,184 14,364 40,539 27,182 67,357 119,524 71,231 145,428 226,596 81,169 170,307 268,418 118,133 276,232 448,293 -18,-2 -35,-4 -53,-7 -248,-40 -490,-160 -654,-345 -98,-110 -186,-249 -268,-418 -81,-167 -155,-365 -226,-596 -51,-167 -91,-343 -119,-524 -26,-174 -40,-355 -40,-539 0,-782 219,-1491 573,-2005 358,-520 854,-841 1404,-841zm237 2459c-45,-3 -92,-8 -139,-15 -31,-5 -53,-35 -49,-67 2,-12 7,-24 15,-32 85,-111 124,-223 124,-326 0,-88 -28,-169 -78,-237 -48,-65 -117,-118 -203,-153 117,0 221,31 305,83 71,43 127,101 166,167 38,65 58,139 57,214 -2,124 -62,254 -198,367zm-801 1853c34,1 67,-1 100,-6 99,-14 187,-51 249,-105 52,-45 86,-102 93,-167 3,-33 31,-56 63,-53 7,1 15,2 24,3 71,12 132,39 183,79 -6,9 -11,19 -12,31 -7,64 -41,121 -93,167 -63,54 -150,91 -249,105 -101,14 -213,3 -322,-39 -12,-5 -24,-10 -36,-15z"/>
    <path class="fil1" d="M6564 11982c201,-414 668,-740 1452,-740 154,0 303,25 446,73 -63,-9 -126,-13 -191,-13 -782,0 -1247,333 -1447,758 -92,194 -127,408 -113,617 15,209 80,414 191,593 89,144 208,271 353,369 -270,-91 -480,-267 -618,-485 -109,-172 -174,-371 -188,-573 -14,-202 22,-409 114,-598zm1845 4539c-43,-4 -85,-10 -126,-20 -131,-30 -253,-87 -352,-175 -119,-106 -206,-255 -238,-452 -2,-14 -4,-27 -6,-41l0 -2c-15,-140 7,-278 66,-386 61,-113 161,-195 299,-217 9,-1 17,-3 24,-3 32,-3 60,20 63,53 2,23 8,45 17,66 -62,39 -111,95 -147,161 -59,109 -81,246 -66,386l0 2c2,14 3,28 6,41 32,197 118,346 238,452 66,58 141,103 223,136zm154 -968c78,0 160,-14 240,-45 147,-57 289,-172 390,-362l0 0c64,-124 115,-265 149,-418l0 -2c34,-149 52,-310 52,-478 0,-299 -73,-641 -224,-914 -108,-196 -256,-357 -445,-440 229,12 413,123 555,288 154,179 259,421 317,671 35,153 53,309 53,454 0,168 -18,329 -52,478l0 2c-35,154 -86,295 -149,418l0 0c-101,190 -243,305 -390,362 -109,42 -221,53 -322,39 -64,-9 -123,-27 -173,-54z"/>
    <path class="fil2" d="M10489 8456c668,786 954,1254 1021,2168 23,308 -68,827 -185,1363 -430,511 -704,1288 -704,2157 0,24 0,48 1,72l0 3c0,358 57,700 156,1013 90,284 191,525 305,722 -104,797 -166,1076 -593,1640 -428,-563 -490,-842 -593,-1640 114,-197 215,-438 305,-722 99,-313 156,-655 156,-1013l0 -3c0,-24 1,-48 1,-72 0,-870 -274,-1646 -704,-2157 -117,-536 -208,-1055 -185,-1363 67,-914 353,-1382 1021,-2168z"/>
    <path class="fil3" d="M10533 8420c336,396 577,713 743,1047 167,336 257,688 291,1153 12,158 -6,369 -41,608 -35,237 -87,502 -146,771 -2,11 -8,21 -15,28 -213,254 -386,576 -506,942 -116,356 -181,754 -181,1174l0 36c0,11 0,23 1,35l0 2 0 1 0 0c0,173 13,342 38,505 26,170 65,334 114,491 45,142 92,271 141,389 50,118 102,225 158,322 7,12 9,26 7,39 -52,401 -94,672 -177,916 -84,246 -209,461 -427,748 -19,25 -55,30 -80,11 -5,-4 -9,-8 -12,-12 -218,-287 -342,-502 -426,-747 -83,-244 -125,-516 -178,-919 -2,-13 1,-26 7,-36l0 0c56,-97 109,-204 158,-322 49,-117 96,-247 141,-389 50,-157 88,-321 114,-491 25,-163 38,-332 38,-505l0 0 0 -3 0 -1 0 0c0,-12 0,-24 1,-35l0 -36c0,-421 -65,-819 -181,-1174 -120,-369 -295,-691 -509,-946 -6,-7 -10,-16 -12,-25l0 0c-59,-269 -111,-534 -146,-771 -35,-239 -52,-450 -41,-608 34,-465 124,-817 291,-1153 166,-335 407,-651 743,-1048 21,-24 57,-27 81,-7 3,2 5,5 7,7zm640 1098c-154,-310 -376,-607 -684,-972 -308,366 -531,663 -684,972 -160,322 -246,661 -280,1111 -11,150 6,352 40,584 34,230 84,487 141,750 219,264 398,596 521,973 120,367 187,777 187,1210l0 37c0,13 0,25 -1,37l0 2 0 0c0,178 -14,353 -40,522 -27,176 -67,346 -119,508 -45,143 -93,275 -145,399 -49,116 -100,222 -155,318 50,384 91,646 170,877 74,216 182,409 364,655 182,-246 290,-439 364,-655 79,-232 120,-493 170,-877 -55,-96 -106,-202 -155,-318 -52,-123 -100,-256 -145,-399 -51,-162 -91,-332 -119,-508 -26,-169 -40,-344 -40,-522l0 0 0 0 0 -2c0,-11 0,-24 -1,-36l0 -37c0,-432 67,-843 187,-1210 123,-377 302,-709 521,-973 57,-263 108,-520 141,-750 34,-231 51,-434 40,-584 -33,-449 -120,-788 -280,-1111zm-494 4699l0 1"/>
    <path class="fil3" d="M10489 16947l-2 0c-26,-349 -41,-757 -40,-1252l0 -4991c-1,-991 36,-1505 39,-1590l2 0 2 0c4,85 40,599 39,1590l0 4991c1,495 -14,903 -40,1252l-2 0z"/>
    <path class="fil2" d="M12544 11362c2187,0 1804,2580 106,2325 380,-490 -64,-1023 -749,-820 -538,160 -794,874 -794,1441 0,351 78,674 209,927 341,642 1123,489 1162,107 263,28 377,304 332,581 -123,763 -1121,744 -1549,262 -189,-212 -340,-535 -481,-992 -99,-323 -156,-675 -156,-1045 0,-1539 859,-2787 1919,-2787z"/>
    <path class="fil3" d="M12544 11302c785,0 1251,326 1452,740 92,189 128,395 114,598 -14,202 -78,401 -188,573 -236,372 -680,623 -1280,533 -31,-5 -53,-35 -49,-67 2,-12 7,-24 15,-32 85,-111 124,-223 124,-326 0,-88 -28,-169 -78,-237 -52,-70 -128,-126 -222,-161 -138,-51 -314,-58 -514,1 -229,68 -405,246 -528,470 -151,273 -224,614 -224,914 0,168 18,329 52,478l0 2c35,154 86,295 149,418l0 0c101,190 243,305 390,362 109,42 221,53 322,39 99,-14 187,-51 249,-105 52,-45 86,-102 93,-167 3,-33 31,-56 63,-53 7,1 15,2 24,3 137,22 237,104 299,217 59,109 81,246 66,386l0 2c-2,14 -3,28 -6,41 -32,197 -118,346 -238,452 -99,88 -221,146 -352,175 -129,29 -268,31 -405,9 -248,-40 -490,-160 -654,-345 -98,-110 -186,-249 -268,-418 -81,-167 -155,-365 -226,-596 -51,-167 -91,-343 -119,-524 -26,-174 -40,-355 -40,-539 0,-782 219,-1491 573,-2005 358,-520 854,-841 1404,-841zm1350 793c-183,-377 -616,-674 -1350,-674 -510,0 -974,302 -1310,791 -341,495 -551,1179 -551,1937 0,178 13,352 38,521 26,175 65,344 114,506 69,226 141,418 219,579 77,159 159,289 249,390 146,164 363,272 586,308 123,20 248,18 363,-8 113,-26 217,-75 301,-149 100,-89 172,-215 199,-382 2,-12 3,-23 5,-35l0 -2c12,-116 -5,-229 -52,-316 -40,-73 -101,-128 -183,-151 -21,71 -63,133 -121,183 -79,68 -187,115 -308,131 -119,16 -250,4 -377,-46 -171,-66 -335,-199 -450,-416l0 0 0 -1c-69,-133 -123,-284 -160,-447l-1 -2c-36,-158 -55,-328 -55,-505 0,-318 78,-680 239,-972 138,-250 335,-448 597,-526 224,-67 426,-58 585,2 115,43 209,113 274,200 66,89 103,195 102,310 0,103 -30,211 -94,319 502,44 872,-175 1073,-492 99,-156 157,-334 169,-517 13,-182 -20,-368 -102,-537z"/>
    <path class="fil3" d="M10761 13579c-118,418 -102,872 2,1283 478,1889 2042,1518 1764,524 182,940 -1226,1221 -1673,-543 -101,-399 -116,-838 -2,-1241 144,-666 812,-1593 1634,-1508 837,98 997,966 474,1461 661,-452 419,-1599 -629,-1556 -729,30 -1388,784 -1569,1581z"/>
    <path class="fil2" d="M8433 11362c-2187,0 -1804,2580 -106,2325 -380,-490 64,-1023 749,-820 538,160 794,874 794,1441 0,351 -78,674 -209,927 -341,642 -1123,489 -1162,107 -263,28 -377,304 -332,581 123,763 1121,744 1549,262 189,-212 340,-535 481,-992 99,-323 156,-675 156,-1045 0,-1539 -859,-2787 -1919,-2787z"/>
    <path class="fil3" d="M8433 11421c-734,0 -1167,297 -1350,674 -82,169 -114,354 -102,537 13,182 71,361 169,517 201,317 571,536 1073,492 -64,-108 -94,-216 -94,-319 0,-115 36,-221 102,-310 65,-87 159,-157 274,-200 159,-59 361,-68 585,-2 261,78 459,276 597,526 161,292 239,655 239,972 0,177 -19,347 -55,505l-1 2c-37,163 -92,314 -160,447l0 1 0 0c-116,218 -279,350 -450,416 -127,49 -259,62 -377,46 -121,-17 -229,-63 -308,-131 -58,-50 -101,-112 -121,-183 -82,23 -143,78 -183,151 -47,87 -65,200 -52,316l0 2c1,11 3,23 5,35 27,167 100,293 199,382 84,74 188,123 301,149 116,26 240,28 363,8 223,-36 440,-143 586,-308 90,-102 173,-231 249,-390 78,-161 149,-353 219,-579 50,-162 88,-331 114,-506 25,-169 38,-343 38,-521 0,-757 -211,-1442 -551,-1937 -337,-489 -800,-791 -1310,-791zm-1452 621c201,-414 668,-740 1452,-740 550,0 1046,322 1404,841 354,514 573,1223 573,2005 0,184 -14,364 -40,539 -27,182 -67,357 -119,524 -71,231 -145,428 -226,596 -81,169 -170,307 -268,418 -164,185 -406,305 -654,345 -137,22 -276,20 -405,-9 -131,-30 -253,-87 -352,-175 -119,-106 -206,-255 -238,-452 -2,-14 -4,-27 -6,-41l0 -2c-15,-140 7,-277 66,-386 61,-113 161,-195 299,-217 9,-1 17,-3 24,-3 32,-3 60,20 63,53 7,64 41,121 93,167 63,54 150,91 249,105 101,14 213,3 322,-39 147,-57 289,-172 390,-362l0 0c64,-124 115,-265 149,-418l0 -2c34,-149 52,-310 52,-478 0,-299 -73,-641 -224,-914 -124,-224 -299,-402 -528,-470 -200,-59 -377,-52 -514,-1 -94,35 -170,91 -222,161 -51,68 -79,149 -78,237 0,103 39,215 124,326 8,9 13,20 15,32 4,32 -17,62 -49,67 -600,90 -1045,-161 -1280,-533 -109,-172 -174,-371 -188,-573 -14,-202 22,-409 114,-598z"/>
    <path class="fil3" d="M10216 13579c118,418 102,872 -2,1283 -478,1889 -2042,1518 -1764,524 -182,940 1226,1221 1673,-543 101,-399 116,-838 2,-1241 -144,-666 -812,-1593 -1634,-1508 -837,98 -997,966 -474,1461 -661,-452 -419,-1599 629,-1556 729,30 1388,784 1569,1581z"/>
    <path class="fil3" d="M9149 15291c154,-172 252,-238 483,-269 263,-28 528,7 790,32 394,36 689,52 1082,-35 229,-58 394,-130 592,-258 219,-150 361,-336 519,-546 -273,-192 -547,-384 -820,-576 -81,108 -154,188 -266,265 -89,58 -162,88 -265,115 -251,55 -490,33 -743,10 -361,-34 -649,-28 -1015,12 -218,30 -380,75 -579,170 -221,114 -367,231 -531,415l754 667z"/>
    <path class="fil4" d="M8794 14888c110,-114 205,-188 347,-261 146,-70 265,-102 424,-124 318,-34 594,0 909,30 322,29 583,9 903,-61 163,-41 279,-91 419,-182 146,-100 244,-198 353,-336l-340 -244c-79,99 -145,167 -250,239 -95,62 -173,94 -283,122 -259,57 -500,35 -762,12 -356,-34 -642,-28 -1003,11 -211,29 -369,73 -561,165 -190,97 -320,197 -467,350 103,93 207,187 310,280z"/>
    <path class="fil5" d="M9145 15204c67,-70 124,-115 211,-160 92,-44 169,-63 270,-77 267,-29 536,6 802,32 387,35 677,51 1063,-33 222,-56 382,-126 574,-250 192,-132 334,-304 478,-486l-348 -244c-113,143 -215,244 -366,348 -147,95 -268,147 -437,190 -328,72 -592,93 -922,63 -309,-29 -584,-64 -896,-30 -153,21 -267,51 -406,118 -135,69 -226,140 -331,249 103,93 207,187 310,280z"/>
   </g>
  </g>
 </g>
</svg>
