<?xml version="1.0" encoding="UTF-8"?>
<!DOCTYPE svg PUBLIC "-//W3C//DTD SVG 1.1//EN" "http://www.w3.org/Graphics/SVG/1.1/DTD/svg11.dtd">
<!-- Creator: CorelDRAW X6 -->
<svg xmlns="http://www.w3.org/2000/svg" xml:space="preserve" width="210mm" height="297mm" version="1.1" style="shape-rendering:geometricPrecision; text-rendering:geometricPrecision; image-rendering:optimizeQuality; fill-rule:evenodd; clip-rule:evenodd"
viewBox="0 0 21000 29700"
 xmlns:xlink="http://www.w3.org/1999/xlink">
 <defs>
  <style type="text/css">
   <![CDATA[
    .fil2 {fill:#FEFEFE}
    .fil0 {fill:#2B2A29;fill-rule:nonzero}
    .fil4 {fill:#E31E24;fill-rule:nonzero}
    .fil3 {fill:#FEFEFE;fill-rule:nonzero}
    .fil1 {fill:#C5C6C6;fill-rule:nonzero}
   ]]>
  </style>
 </defs>
 <g id="Warstwa_x0020_1">
  <metadata id="CorelCorpID_0Corel-Layer"/>
  <g id="_755614272">
   <path class="fil0" d="M9982 18636l279 41 -149 740c220,139 484,104 789,46l224 -703c134,-73 218,-84 386,-45 60,384 -6,704 -78,1149 -61,368 -123,664 -146,1048l-41 110 -115 98c-105,-25 -180,23 -264,-40 -145,-186 -88,-372 -32,-630l73 -445 -39 -173 -792 42 -153 516c-70,12 -97,-32 -144,-27 -95,-1 -132,-13 -204,-64 -84,-323 13,-580 74,-949 26,-247 105,-396 150,-668 65,-24 108,-34 182,-47z"/>
   <path class="fil0" d="M12742 19026c-78,209 -103,351 -134,567 247,66 556,81 749,-188 30,-108 10,-190 -47,-285l-567 -93zm-316 -387c266,113 535,42 857,60 244,3 467,41 578,277 40,100 47,168 27,248 -2,95 -41,227 -90,298 -147,156 -365,253 -639,349 -60,35 -90,59 -89,133 96,76 151,150 230,251l184 200c38,51 57,62 131,112l195 138c217,163 525,255 859,282l-36 63c-393,81 -764,114 -1104,-38 -415,-204 -646,-516 -924,-815l-72 37 -227 628c-105,21 -184,16 -309,18 -40,3 -70,-4 -108,-36 55,-741 251,-1368 377,-2133l162 -72z"/>
   <path class="fil0" d="M8327 18826l691 -5c121,88 145,187 36,359 -106,148 -233,270 -390,392l-308 231c-213,146 -440,205 -589,450 629,131 1282,114 1824,441 88,60 121,126 144,200 -28,52 -192,58 -334,46l-550 -32c-437,-55 -777,-354 -1197,-199 -206,76 -623,153 -921,150 -130,-8 -319,47 -378,-92 -14,-27 -25,-47 -19,-78 -3,-26 10,-45 28,-74 186,-131 336,-302 605,-447 59,-56 134,-72 231,-170 326,-243 581,-401 958,-631l4 -25c-24,-11 -41,-16 -64,-25 -402,2 -923,-52 -1073,-100 -107,-137 -190,-299 58,-407l1245 14z"/>
   <g>
    <path class="fil1" d="M10337 8599c38,44 74,88 109,130 -305,364 -527,662 -683,976 -167,336 -257,688 -291,1153 -12,158 6,369 41,608 35,237 87,502 146,771l0 0c2,9 6,17 12,25 214,255 389,577 509,946 116,356 181,754 181,1174l0 36c0,11 0,23 -1,35l0 0 0 1 0 3 0 0c0,173 -13,342 -38,505 -26,170 -65,334 -114,491 -45,142 -92,271 -141,389 -50,118 -102,225 -158,322l0 0c-6,11 -9,23 -7,36 52,402 94,674 178,918 69,204 167,386 322,606 -20,27 -40,55 -62,83 -19,25 -55,30 -80,11 -5,-4 -9,-8 -12,-12 -217,-287 -342,-502 -426,-747 -83,-244 -125,-516 -178,-918 -2,-13 1,-26 7,-36l0 0c56,-97 109,-204 158,-322 49,-117 96,-247 141,-389 50,-157 88,-321 114,-491 25,-163 38,-332 38,-505l0 0 0 -3 0 -1 0 0c0,-12 0,-24 1,-35l0 -36c0,-420 -65,-818 -181,-1174 -120,-369 -295,-691 -509,-946 -6,-7 -10,-16 -12,-25l0 0c-59,-269 -111,-534 -146,-771 -35,-239 -52,-450 -41,-608 34,-465 124,-817 291,-1153 166,-335 407,-651 743,-1048 21,-24 57,-27 81,-7 3,2 5,5 7,7z"/>
    <path class="fil1" d="M12347 11481c250,0 468,33 656,92 -122,-21 -254,-32 -398,-32 -550,0 -1046,322 -1404,841 -354,514 -573,1223 -573,2005 0,184 14,364 40,539 27,182 67,357 118,524 71,231 145,428 226,596 81,169 170,307 268,418 118,133 276,232 448,293 -18,-2 -35,-4 -53,-7 -248,-40 -489,-160 -653,-345 -98,-110 -186,-249 -268,-418 -81,-167 -155,-365 -226,-596 -51,-167 -91,-342 -118,-524 -26,-174 -40,-355 -40,-539 0,-782 219,-1491 573,-2005 358,-520 854,-841 1404,-841zm237 2458c-45,-3 -92,-8 -139,-15 -31,-5 -53,-35 -49,-67 2,-12 7,-24 15,-32 85,-111 124,-223 124,-326 0,-88 -28,-169 -78,-237 -48,-65 -117,-118 -203,-153 117,0 221,31 305,83 71,43 127,101 166,167 38,65 58,139 57,214 -2,124 -62,254 -198,367zm-801 1852c34,1 67,-1 100,-6 99,-14 187,-51 249,-105 52,-45 86,-102 93,-167 3,-33 31,-56 63,-53 7,1 15,2 24,3 71,12 132,39 183,79 -6,9 -11,19 -12,31 -7,64 -41,121 -93,167 -63,54 -150,91 -249,105 -101,14 -213,3 -322,-39 -12,-5 -24,-10 -36,-15z"/>
    <path class="fil1" d="M6784 12221c201,-414 668,-739 1452,-739 154,0 303,25 446,73 -63,-9 -126,-13 -191,-13 -782,0 -1247,333 -1447,758 -92,194 -127,408 -112,617 15,209 80,414 191,592 89,144 208,271 353,369 -270,-91 -480,-267 -617,-485 -109,-172 -174,-371 -188,-573 -14,-202 22,-409 114,-598zm1845 4538c-43,-4 -85,-10 -126,-20 -131,-30 -253,-87 -352,-175 -119,-106 -206,-255 -238,-452 -2,-14 -4,-27 -6,-41l0 -2c-15,-140 7,-277 66,-386 61,-113 161,-195 298,-217 9,-1 17,-3 24,-3 32,-3 60,20 63,53 2,23 8,45 17,66 -62,39 -111,95 -147,161 -59,109 -81,246 -66,386l0 2c2,14 3,28 6,41 32,197 118,346 238,452 66,58 141,103 223,136zm154 -967c78,0 160,-14 240,-45 147,-57 289,-172 390,-362l0 0c64,-124 115,-265 149,-418l0 -2c34,-149 52,-310 52,-478 0,-299 -73,-641 -224,-914 -108,-196 -256,-357 -445,-440 229,12 413,123 555,288 154,179 259,421 316,671 35,153 53,309 53,454 0,168 -18,329 -52,478l0 2c-35,154 -86,295 -149,418l0 0c-101,190 -243,305 -390,362 -109,42 -221,53 -322,39 -64,-9 -123,-27 -173,-54z"/>
    <path class="fil2" d="M10709 8695c668,786 954,1253 1021,2168 23,308 -68,827 -185,1363 -430,511 -704,1287 -704,2157 0,24 0,48 1,72l0 3c0,358 57,700 156,1013 90,284 190,525 305,722 -104,797 -166,1076 -593,1639 -428,-563 -489,-842 -593,-1639 114,-197 215,-438 305,-722 99,-313 156,-655 156,-1013l0 -3c0,-24 1,-48 1,-72 0,-869 -274,-1646 -704,-2157 -117,-536 -208,-1055 -185,-1363 67,-914 353,-1381 1021,-2168z"/>
    <path class="fil0" d="M10753 8659c336,396 577,712 743,1047 167,336 257,688 291,1153 12,158 -6,369 -41,608 -35,237 -87,502 -146,771 -2,11 -8,21 -15,28 -213,254 -386,575 -506,942 -116,356 -181,754 -181,1174l0 36c0,11 0,23 1,35l0 2 0 1 0 0c0,173 13,342 38,505 26,170 65,334 114,491 45,142 92,271 141,389 50,118 102,225 158,322 7,12 9,26 7,39 -52,401 -94,672 -177,916 -84,246 -209,461 -427,748 -19,25 -55,30 -80,11 -5,-4 -9,-8 -12,-12 -217,-287 -342,-502 -426,-747 -83,-244 -125,-516 -178,-918 -2,-13 1,-26 7,-36l0 0c56,-97 109,-204 158,-322 49,-117 96,-247 141,-389 50,-157 88,-321 114,-491 25,-163 38,-332 38,-505l0 0 0 -3 0 -1 0 0c0,-12 0,-24 1,-35l0 -36c0,-420 -65,-818 -181,-1174 -120,-369 -295,-691 -509,-946 -6,-7 -10,-16 -12,-25l0 0c-59,-269 -111,-534 -146,-771 -35,-239 -52,-450 -41,-608 34,-465 124,-817 291,-1153 166,-335 407,-651 743,-1048 21,-24 57,-27 81,-7 3,2 5,5 7,7zm640 1098c-154,-310 -376,-606 -684,-972 -308,366 -531,663 -684,972 -160,322 -246,661 -279,1110 -11,150 6,352 40,584 34,230 84,487 141,750 219,264 398,596 521,973 120,367 187,777 187,1210l0 37c0,13 0,25 -1,37l0 2 0 0c0,178 -14,353 -40,522 -27,176 -67,346 -118,508 -45,143 -93,275 -145,399 -49,116 -100,222 -155,318 50,384 91,645 170,877 74,216 182,409 364,655 182,-246 290,-439 364,-655 79,-232 120,-493 170,-877 -55,-96 -106,-202 -155,-318 -52,-123 -100,-256 -145,-399 -51,-162 -91,-332 -118,-508 -26,-169 -40,-344 -40,-522l0 0 0 0 0 -2c0,-11 0,-24 -1,-36l0 -37c0,-432 67,-842 187,-1210 123,-377 302,-708 521,-973 57,-262 108,-520 141,-750 34,-231 51,-434 40,-584 -33,-449 -120,-788 -279,-1110zm-494 4699l0 1"/>
    <path class="fil0" d="M10709 17184l-2 0c-26,-349 -41,-757 -40,-1251l0 -4991c-1,-991 36,-1505 39,-1589l2 0 2 0c4,85 40,599 39,1589l0 4991c1,494 -14,902 -40,1251l-2 0z"/>
    <path class="fil2" d="M12764 11600c2187,0 1803,2580 106,2325 380,-489 -64,-1023 -749,-820 -537,160 -794,874 -794,1441 0,351 78,674 209,927 341,642 1123,489 1162,107 263,28 377,304 332,581 -123,763 -1121,744 -1549,262 -189,-212 -340,-535 -481,-991 -99,-323 -156,-675 -156,-1045 0,-1539 859,-2787 1919,-2787z"/>
    <path class="fil0" d="M12764 11541c785,0 1251,326 1452,739 92,189 128,395 114,598 -14,202 -78,401 -188,573 -236,372 -680,623 -1280,533 -31,-5 -53,-35 -49,-67 2,-12 7,-24 15,-32 85,-111 124,-223 124,-326 0,-88 -28,-169 -78,-237 -52,-70 -128,-126 -222,-161 -138,-51 -314,-58 -514,1 -229,68 -405,246 -528,470 -151,273 -224,614 -224,914 0,168 18,329 52,478l0 2c35,154 86,295 149,418l0 0c101,190 243,305 390,362 109,42 221,53 322,39 99,-14 187,-51 249,-105 52,-45 86,-102 93,-167 3,-33 31,-56 63,-53 7,1 15,2 24,3 137,22 237,104 298,217 59,109 81,246 66,386l0 2c-2,14 -3,28 -6,41 -32,197 -118,346 -238,452 -99,88 -221,146 -352,175 -129,29 -268,31 -405,9 -248,-40 -489,-160 -653,-345 -98,-110 -186,-249 -268,-418 -81,-167 -155,-365 -226,-596 -51,-167 -91,-342 -118,-524 -26,-174 -40,-355 -40,-539 0,-782 219,-1491 573,-2005 358,-520 854,-841 1404,-841zm1349 792c-183,-377 -616,-674 -1349,-674 -510,0 -973,302 -1310,791 -341,495 -551,1179 -551,1936 0,178 13,352 38,521 26,175 65,344 114,506 69,226 141,418 219,579 77,159 159,289 249,390 146,164 363,272 586,308 123,20 248,18 363,-8 113,-26 217,-75 301,-149 100,-89 172,-215 199,-382 2,-12 3,-23 5,-35l0 -2c12,-116 -5,-229 -52,-316 -40,-73 -101,-128 -183,-151 -21,71 -63,133 -121,183 -79,68 -187,115 -308,131 -119,16 -250,4 -377,-46 -171,-66 -335,-199 -450,-416l0 0 0 -1c-69,-133 -123,-284 -160,-447l-1 -2c-36,-158 -55,-328 -55,-505 0,-317 78,-680 239,-972 138,-250 335,-448 596,-526 224,-67 426,-58 585,2 115,43 209,113 274,200 66,89 103,195 102,309 0,103 -30,211 -94,319 502,44 872,-175 1073,-492 99,-155 157,-334 169,-517 13,-182 -20,-368 -102,-536z"/>
    <path class="fil0" d="M10981 13818c-118,417 -102,872 2,1282 478,1888 2042,1517 1763,523 182,940 -1226,1220 -1672,-543 -101,-398 -116,-838 -2,-1241 144,-666 811,-1592 1634,-1508 837,98 997,966 474,1461 661,-452 419,-1599 -629,-1556 -729,30 -1388,784 -1569,1581z"/>
    <path class="fil2" d="M8653 11600c-2187,0 -1803,2580 -106,2325 -380,-489 64,-1023 749,-820 537,160 794,874 794,1441 0,351 -78,674 -209,927 -341,642 -1123,489 -1162,107 -263,28 -377,304 -332,581 123,763 1121,744 1549,262 189,-212 340,-535 481,-991 99,-323 156,-675 156,-1045 0,-1539 -859,-2787 -1919,-2787z"/>
    <path class="fil0" d="M8653 11660c-734,0 -1166,297 -1349,674 -82,169 -114,354 -102,536 13,182 71,361 169,517 201,317 571,536 1073,492 -64,-108 -94,-216 -94,-319 0,-115 36,-221 102,-309 65,-87 159,-157 274,-200 159,-59 361,-68 585,-2 261,78 459,276 596,526 161,292 239,655 239,972 0,177 -19,347 -55,505l-1 2c-37,163 -92,314 -160,447l0 1 0 0c-116,218 -279,350 -450,416 -127,49 -259,62 -377,46 -121,-17 -229,-63 -308,-131 -58,-50 -101,-112 -121,-183 -82,23 -143,78 -183,151 -47,87 -65,200 -52,316l0 2c1,11 3,23 5,35 27,167 99,293 199,382 84,74 188,123 301,149 116,26 240,28 363,8 223,-36 440,-143 586,-308 90,-102 172,-231 249,-390 77,-161 149,-353 219,-579 50,-162 88,-331 114,-506 25,-169 38,-343 38,-521 0,-757 -211,-1442 -551,-1936 -337,-489 -800,-791 -1310,-791zm-1452 621c201,-414 668,-739 1452,-739 550,0 1046,322 1404,841 354,514 573,1223 573,2005 0,184 -14,364 -40,539 -27,182 -67,357 -118,524 -71,231 -145,428 -226,596 -81,169 -170,307 -268,418 -164,185 -406,305 -653,345 -137,22 -276,20 -405,-9 -131,-30 -253,-87 -352,-175 -119,-106 -206,-255 -238,-452 -2,-14 -4,-27 -6,-41l0 -2c-15,-140 7,-277 66,-386 61,-113 161,-195 298,-217 9,-1 17,-3 24,-3 32,-3 60,20 63,53 7,64 41,121 93,167 63,54 150,91 249,105 101,14 213,3 322,-39 147,-57 289,-172 390,-362l0 0c64,-124 115,-265 149,-418l0 -2c34,-149 52,-310 52,-478 0,-299 -73,-641 -224,-914 -124,-224 -299,-402 -528,-470 -200,-59 -376,-52 -514,-1 -94,35 -170,91 -222,161 -51,68 -79,149 -78,237 0,103 39,215 124,326 8,9 13,20 15,32 4,32 -17,62 -49,67 -600,90 -1044,-161 -1280,-533 -109,-172 -174,-371 -188,-573 -14,-202 22,-409 114,-598z"/>
    <path class="fil0" d="M10436 13818c118,417 102,872 -2,1282 -478,1888 -2042,1517 -1763,523 -182,940 1226,1220 1672,-543 101,-398 116,-838 2,-1241 -144,-666 -811,-1592 -1634,-1508 -837,98 -997,966 -474,1461 -661,-452 -419,-1599 629,-1556 729,30 1388,784 1569,1581z"/>
    <path class="fil0" d="M9370 15529c154,-172 252,-238 483,-269 263,-28 528,7 789,32 394,36 689,52 1082,-35 229,-58 394,-130 592,-258 219,-150 361,-336 519,-546 -273,-192 -547,-384 -820,-576 -81,108 -154,188 -266,265 -89,58 -161,88 -265,115 -251,55 -490,33 -743,10 -361,-34 -649,-28 -1015,12 -218,30 -380,75 -579,170 -221,114 -367,231 -531,415l754 667z"/>
    <path class="fil3" d="M9014 15125c110,-114 205,-188 347,-261 146,-70 264,-102 424,-124 318,-34 594,0 908,30 322,29 583,9 903,-61 163,-41 279,-91 419,-182 146,-100 244,-198 353,-336l-340 -244c-79,99 -145,166 -250,239 -95,62 -173,94 -283,122 -259,57 -500,35 -762,12 -355,-34 -642,-28 -1003,11 -211,29 -368,73 -561,165 -190,97 -319,197 -467,350 103,93 207,187 310,280z"/>
    <path class="fil4" d="M9365 15442c67,-70 124,-115 211,-160 92,-44 169,-63 270,-77 267,-29 536,6 802,32 387,35 677,51 1063,-33 222,-56 382,-126 574,-250 192,-132 334,-304 477,-486l-348 -244c-113,143 -215,244 -366,348 -147,95 -268,147 -437,190 -328,72 -592,93 -922,63 -309,-29 -584,-64 -896,-30 -153,21 -267,51 -406,118 -135,69 -226,140 -331,249 103,93 207,187 310,280z"/>
   </g>
  </g>
 </g>
</svg>
